<svg version="1.1" viewBox="0.0 0.0 661.5196850393701 661.9238845144357" fill="none" stroke="none" stroke-linecap="square" stroke-miterlimit="10" xmlns:xlink="http://www.w3.org/1999/xlink" xmlns="http://www.w3.org/2000/svg"><clipPath id="p.0"><path d="m0 0l661.5197 0l0 661.9239l-661.5197 0l0 -661.9239z" clip-rule="nonzero"/></clipPath><g clip-path="url(#p.0)"><path fill="#000000" fill-opacity="0.0" d="m0 0l661.5197 0l0 661.9239l-661.5197 0z" fill-rule="evenodd"/><path fill="#000000" fill-opacity="0.0" d="m25.952755 127.36161l0 0c0 -56.00656 45.402294 -101.40886 101.40886 -101.40886l405.62326 0l0 0c26.895264 0 52.689026 10.684116 71.70685 29.701965c19.017883 19.017849 29.701965 44.81159 29.701965 71.706894l0 405.62326c0 56.00653 -45.402283 101.40881 -101.40881 101.40881l-405.62326 0c-56.00656 0 -101.40886 -45.402283 -101.40886 -101.40881z" fill-rule="evenodd"/><path stroke="#ffffff" stroke-width="12.0" stroke-linejoin="round" stroke-linecap="butt" d="m25.952755 127.36161l0 0c0 -56.00656 45.402294 -101.40886 101.40886 -101.40886l405.62326 0l0 0c26.895264 0 52.689026 10.684116 71.70685 29.701965c19.017883 19.017849 29.701965 44.81159 29.701965 71.706894l0 405.62326c0 56.00653 -45.402283 101.40881 -101.40881 101.40881l-405.62326 0c-56.00656 0 -101.40886 -45.402283 -101.40886 -101.40881z" fill-rule="evenodd"/><path fill="#ffffff" d="m480.89764 320.32022l-150.72443 238.29922l-150.7244 -238.29922z" fill-rule="evenodd"/><path stroke="#ffffff" stroke-width="1.0" stroke-linejoin="round" stroke-linecap="butt" d="m480.89764 320.32022l-150.72443 238.29922l-150.7244 -238.29922z" fill-rule="evenodd"/><path fill="#ffffff" d="m150.0315 258.95013l0 0c0 -99.48953 80.65221 -180.14174 180.14172 -180.14174l0 0c47.77658 0 93.59631 18.979164 127.379456 52.7623c33.78311 33.783127 52.7623 79.602875 52.7623 127.37944l0 0c0 99.48953 -80.65222 180.14172 -180.14175 180.14172l0 0c-99.48952 0 -180.14172 -80.65219 -180.14172 -180.14172zm121.12369 0c0 32.594757 26.423279 59.018036 59.018036 59.018036c32.594757 0 59.018036 -26.423279 59.018036 -59.018036c0 -32.594757 -26.423279 -59.018036 -59.018036 -59.018036l0 0c-32.594757 0 -59.018036 26.423279 -59.018036 59.018036z" fill-rule="evenodd"/><path stroke="#ffffff" stroke-width="1.0" stroke-linejoin="round" stroke-linecap="butt" d="m150.0315 258.95013l0 0c0 -99.48953 80.65221 -180.14174 180.14172 -180.14174l0 0c47.77658 0 93.59631 18.979164 127.379456 52.7623c33.78311 33.783127 52.7623 79.602875 52.7623 127.37944l0 0c0 99.48953 -80.65222 180.14172 -180.14175 180.14172l0 0c-99.48952 0 -180.14172 -80.65219 -180.14172 -180.14172zm121.12369 0c0 32.594757 26.423279 59.018036 59.018036 59.018036c32.594757 0 59.018036 -26.423279 59.018036 -59.018036c0 -32.594757 -26.423279 -59.018036 -59.018036 -59.018036l0 0c-32.594757 0 -59.018036 26.423279 -59.018036 59.018036z" fill-rule="evenodd"/></g></svg>